<mxfile host="app.diagrams.net" agent="Mozilla/5.0 (Windows NT 10.0; Win64; x64) AppleWebKit/537.36 (KHTML, like Gecko) Chrome/133.0.0.0 Safari/537.36" version="26.0.14">
  <diagram name="第 1 页" id="PvtnynNV7M-P_bDML6N9">
    <mxGraphModel dx="967" dy="573" grid="0" gridSize="10" guides="1" tooltips="1" connect="1" arrows="1" fold="1" page="1" pageScale="1" pageWidth="2339" pageHeight="3300" math="0" shadow="0">
      <root>
        <mxCell id="0" />
        <mxCell id="1" parent="0" />
        <mxCell id="tGZQAkcU19CuK300Gd-0-13" value="" style="edgeStyle=orthogonalEdgeStyle;rounded=0;orthogonalLoop=1;jettySize=auto;html=1;strokeColor=default;startArrow=classic;startFill=1;" edge="1" parent="1" source="tGZQAkcU19CuK300Gd-0-1" target="tGZQAkcU19CuK300Gd-0-2">
          <mxGeometry relative="1" as="geometry" />
        </mxCell>
        <mxCell id="tGZQAkcU19CuK300Gd-0-1" value="物联网设备" style="rounded=0;whiteSpace=wrap;html=1;" vertex="1" parent="1">
          <mxGeometry x="202" y="136" width="120" height="60" as="geometry" />
        </mxCell>
        <mxCell id="tGZQAkcU19CuK300Gd-0-14" value="" style="edgeStyle=orthogonalEdgeStyle;rounded=0;orthogonalLoop=1;jettySize=auto;html=1;startArrow=none;startFill=0;endArrow=classic;endFill=1;" edge="1" parent="1" source="tGZQAkcU19CuK300Gd-0-2" target="tGZQAkcU19CuK300Gd-0-3">
          <mxGeometry relative="1" as="geometry" />
        </mxCell>
        <mxCell id="tGZQAkcU19CuK300Gd-0-25" value="订阅采&lt;div&gt;集数据&lt;/div&gt;" style="edgeLabel;html=1;align=center;verticalAlign=middle;resizable=0;points=[];" vertex="1" connectable="0" parent="tGZQAkcU19CuK300Gd-0-14">
          <mxGeometry x="-0.0536" relative="1" as="geometry">
            <mxPoint as="offset" />
          </mxGeometry>
        </mxCell>
        <mxCell id="tGZQAkcU19CuK300Gd-0-22" style="edgeStyle=orthogonalEdgeStyle;rounded=0;orthogonalLoop=1;jettySize=auto;html=1;exitX=0.699;exitY=0.988;exitDx=0;exitDy=0;exitPerimeter=0;entryX=0.687;entryY=0.055;entryDx=0;entryDy=0;entryPerimeter=0;" edge="1" parent="1" source="tGZQAkcU19CuK300Gd-0-2" target="tGZQAkcU19CuK300Gd-0-8">
          <mxGeometry relative="1" as="geometry">
            <mxPoint x="481" y="240" as="targetPoint" />
          </mxGeometry>
        </mxCell>
        <mxCell id="tGZQAkcU19CuK300Gd-0-23" value="上报设&lt;br&gt;备信息" style="edgeLabel;html=1;align=center;verticalAlign=middle;resizable=0;points=[];" vertex="1" connectable="0" parent="tGZQAkcU19CuK300Gd-0-22">
          <mxGeometry x="-0.2197" y="-1" relative="1" as="geometry">
            <mxPoint y="1" as="offset" />
          </mxGeometry>
        </mxCell>
        <mxCell id="tGZQAkcU19CuK300Gd-0-2" value="Mosquitto&lt;br&gt;（Broker）" style="rounded=0;whiteSpace=wrap;html=1;" vertex="1" parent="1">
          <mxGeometry x="397" y="136" width="120" height="60" as="geometry" />
        </mxCell>
        <mxCell id="tGZQAkcU19CuK300Gd-0-15" value="" style="edgeStyle=orthogonalEdgeStyle;rounded=0;orthogonalLoop=1;jettySize=auto;html=1;" edge="1" parent="1" source="tGZQAkcU19CuK300Gd-0-3" target="tGZQAkcU19CuK300Gd-0-10">
          <mxGeometry relative="1" as="geometry" />
        </mxCell>
        <mxCell id="tGZQAkcU19CuK300Gd-0-16" value="数据处理" style="edgeLabel;html=1;align=center;verticalAlign=middle;resizable=0;points=[];" vertex="1" connectable="0" parent="tGZQAkcU19CuK300Gd-0-15">
          <mxGeometry x="-0.1953" y="-1" relative="1" as="geometry">
            <mxPoint as="offset" />
          </mxGeometry>
        </mxCell>
        <mxCell id="tGZQAkcU19CuK300Gd-0-3" value="Kafka" style="rounded=0;whiteSpace=wrap;html=1;" vertex="1" parent="1">
          <mxGeometry x="591" y="136" width="120" height="60" as="geometry" />
        </mxCell>
        <mxCell id="tGZQAkcU19CuK300Gd-0-19" value="" style="edgeStyle=orthogonalEdgeStyle;rounded=0;orthogonalLoop=1;jettySize=auto;html=1;exitX=0.342;exitY=0.01;exitDx=0;exitDy=0;exitPerimeter=0;entryX=0.342;entryY=0.979;entryDx=0;entryDy=0;entryPerimeter=0;" edge="1" parent="1" source="tGZQAkcU19CuK300Gd-0-8" target="tGZQAkcU19CuK300Gd-0-2">
          <mxGeometry relative="1" as="geometry" />
        </mxCell>
        <mxCell id="tGZQAkcU19CuK300Gd-0-24" value="下发&lt;div&gt;规则&lt;/div&gt;" style="edgeLabel;html=1;align=center;verticalAlign=middle;resizable=0;points=[];" vertex="1" connectable="0" parent="tGZQAkcU19CuK300Gd-0-19">
          <mxGeometry x="-0.0232" relative="1" as="geometry">
            <mxPoint x="-1" as="offset" />
          </mxGeometry>
        </mxCell>
        <mxCell id="tGZQAkcU19CuK300Gd-0-8" value="Server应用&lt;br&gt;（设备管理、规则下发、状态监控）" style="rounded=0;whiteSpace=wrap;html=1;" vertex="1" parent="1">
          <mxGeometry x="397" y="244" width="120" height="60" as="geometry" />
        </mxCell>
        <mxCell id="tGZQAkcU19CuK300Gd-0-18" value="" style="edgeStyle=orthogonalEdgeStyle;rounded=0;orthogonalLoop=1;jettySize=auto;html=1;" edge="1" parent="1" source="tGZQAkcU19CuK300Gd-0-9" target="tGZQAkcU19CuK300Gd-0-12">
          <mxGeometry relative="1" as="geometry" />
        </mxCell>
        <mxCell id="tGZQAkcU19CuK300Gd-0-27" value="展示" style="edgeLabel;html=1;align=center;verticalAlign=middle;resizable=0;points=[];" vertex="1" connectable="0" parent="tGZQAkcU19CuK300Gd-0-18">
          <mxGeometry x="-0.2893" y="-2" relative="1" as="geometry">
            <mxPoint as="offset" />
          </mxGeometry>
        </mxCell>
        <mxCell id="tGZQAkcU19CuK300Gd-0-9" value="Elasticsearch&lt;br&gt;（数据存储）" style="rounded=0;whiteSpace=wrap;html=1;" vertex="1" parent="1">
          <mxGeometry x="591" y="341" width="120" height="60" as="geometry" />
        </mxCell>
        <mxCell id="tGZQAkcU19CuK300Gd-0-17" value="" style="edgeStyle=orthogonalEdgeStyle;rounded=0;orthogonalLoop=1;jettySize=auto;html=1;" edge="1" parent="1" source="tGZQAkcU19CuK300Gd-0-10" target="tGZQAkcU19CuK300Gd-0-9">
          <mxGeometry relative="1" as="geometry" />
        </mxCell>
        <mxCell id="tGZQAkcU19CuK300Gd-0-26" value="存储" style="edgeLabel;html=1;align=center;verticalAlign=middle;resizable=0;points=[];" vertex="1" connectable="0" parent="tGZQAkcU19CuK300Gd-0-17">
          <mxGeometry x="-0.206" y="1" relative="1" as="geometry">
            <mxPoint as="offset" />
          </mxGeometry>
        </mxCell>
        <mxCell id="tGZQAkcU19CuK300Gd-0-10" value="Logstash" style="rounded=0;whiteSpace=wrap;html=1;" vertex="1" parent="1">
          <mxGeometry x="591" y="241" width="120" height="60" as="geometry" />
        </mxCell>
        <mxCell id="tGZQAkcU19CuK300Gd-0-12" value="&lt;font style=&quot;font-size: 11px;&quot;&gt;Kibana&lt;br&gt;（可视化Dashboard）&lt;/font&gt;" style="rounded=0;whiteSpace=wrap;html=1;" vertex="1" parent="1">
          <mxGeometry x="591" y="441" width="120" height="60" as="geometry" />
        </mxCell>
      </root>
    </mxGraphModel>
  </diagram>
</mxfile>
